<svg width="16" height="16" viewBox="0 0 16 16" fill="none" xmlns="http://www.w3.org/2000/svg">
  <path d="M2.375 16C3.66724 16 4.71875 14.9172 4.71875 13.625C4.71875 12.3328 3.66724 11.25 2.375 11.25C1.08276 11.25 0 12.3328 0 13.625C0 14.9172 1.08276 16 2.375 16Z" fill="white"/>
  <path d="M7.5625 15.5312C7.5625 15.6895 7.54907 15.8444 7.5387 16H10.3512C10.3586 15.8435 10.375 15.6895 10.375 15.5312C10.375 10.1035 5.89648 5.625 0.46875 5.625C0.310547 5.625 0.156494 5.64136 0 5.6488V8.4613C0.15564 8.45093 0.310547 8.4375 0.46875 8.4375C4.34595 8.4375 7.5625 11.6541 7.5625 15.5312Z" fill="white"/>
  <path d="M0.46875 0C0.310425 0 0.157105 0.019043 0 0.0236816V2.8363C0.15686 2.83044 0.310547 2.8125 0.46875 2.8125C7.44739 2.8125 13.1875 8.55261 13.1875 15.5312C13.1875 15.6895 13.1696 15.8431 13.1637 16H15.9763C15.981 15.8429 16 15.6896 16 15.5312C16 6.98804 9.01184 0 0.46875 0Z" fill="white"/>
</svg>
