<svg width="18" height="18" viewBox="0 0 18 18" fill="none" xmlns="http://www.w3.org/2000/svg">
<path d="M0.0787506 9.65273C0.352123 8.81008 1.25662 8.34995 2.09924 8.62333L3.71473 9.14871C4.07248 8.04619 4.45386 6.87391 4.8116 5.77364C3.82948 5.45413 3.19611 5.24825 3.19611 5.24825C2.35349 4.97487 1.89337 4.07035 2.16674 3.2277C2.44011 2.38506 3.34461 1.92492 4.18723 2.1983L5.80272 2.72369C6.12222 1.74154 6.3281 1.10815 6.3281 1.10815C6.60035 0.266631 7.50484 -0.19463 8.34746 0.0787517C9.19008 0.352133 9.65021 1.25665 9.37683 2.0993L8.85146 3.71484L12.2264 4.81174C12.5448 3.82959 12.7507 3.1962 12.7507 3.1962C13.0252 2.35355 13.9297 1.89229 14.7712 2.1668C15.6138 2.44018 16.0751 3.3447 15.8006 4.18622L15.2752 5.80289L16.9424 6.34515C17.7299 6.62978 18.172 7.47918 17.9369 8.29594C17.6917 9.14646 16.7883 9.6651 15.9524 9.39397C15.9457 9.39172 15.2898 9.17909 14.2852 8.85171L13.1883 12.2268L14.8556 12.769C15.6419 13.0537 16.0841 13.9031 15.8501 14.7198C15.6048 15.5704 14.7014 16.0901 13.8656 15.8179C13.8588 15.8156 13.2029 15.603 12.1972 15.2756L11.6549 16.9429C11.3703 17.7293 10.521 18.1714 9.70421 17.9374C8.85371 17.6922 8.33396 16.7888 8.60621 15.9529C8.60846 15.9461 8.82109 15.2914 9.14734 14.2856C8.04484 13.9278 6.87259 13.5464 5.77235 13.1887L5.2301 14.856C4.94548 15.6424 4.09611 16.0845 3.27936 15.8505C2.42886 15.6052 1.90912 14.7018 2.18137 13.8659C2.18361 13.8592 2.39624 13.2044 2.72361 12.1987C1.74149 11.8792 1.10812 11.6733 1.10812 11.6733C0.266624 11.3999 -0.194624 10.4954 0.0787506 9.65273ZM10.1385 11.2368C10.4973 10.1342 10.8776 8.96196 11.2353 7.86168C10.1328 7.50393 8.96059 7.12254 7.86034 6.76478L6.76347 10.1399L10.1385 11.2368Z" fill="white"/>
</svg>
