<svg width="22" height="22" viewBox="0 0 22 22" fill="none" xmlns="http://www.w3.org/2000/svg">
<path fill-rule="evenodd" clip-rule="evenodd" d="M14.3733 0H7.62667C1.46667 0 0 1.46667 0 7.62667V14.3733C0 20.5333 1.46667 22 7.62667 22H14.3733C20.5333 22 22 20.5333 22 14.3733V7.62667C22 1.46667 20.5333 0 14.3733 0ZM17.2156 7C17.6788 7 17.7762 7.25815 17.6788 7.60939C17.5444 8.27614 16.6139 9.83809 16.0502 10.742C16.009 10.808 15.9639 10.876 15.9179 10.9454C15.6519 11.3466 15.3556 11.7934 15.618 12.1586C15.698 12.2799 15.8688 12.4609 16.0641 12.6681C16.265 12.881 16.4918 13.1215 16.6727 13.353C17.3306 14.1541 17.8264 14.8299 17.9645 15.2958C18.0908 15.7632 17.872 16 17.4344 16H15.9028C15.4925 16 15.2859 15.7512 14.8396 15.2138C14.6504 14.9859 14.4181 14.7062 14.1089 14.3716C13.2003 13.4231 12.8108 13.3002 12.5837 13.3002C12.2754 13.3002 12.1832 13.3947 12.1832 13.8683V15.3551C12.1832 15.763 12.0627 15.9999 11.0892 15.9999C9.46653 15.9999 7.6833 14.9335 6.41775 12.9663C4.51922 10.0859 4 7.90792 4 7.46882C4 7.22298 4.08752 7 4.52512 7H6.05673C6.44817 7 6.59542 7.18544 6.74223 7.64456C7.4913 10.0066 8.75433 12.0707 9.27354 12.0707C9.46828 12.0707 9.55755 11.9736 9.55755 11.4384V8.99691C9.52245 8.30201 9.29819 8.0015 9.13207 7.77889C9.02948 7.64142 8.94906 7.53366 8.94906 7.38107C8.94906 7.19563 9.09533 7 9.33875 7H11.7456C12.0702 7 12.1832 7.18781 12.1832 7.60939V10.8939C12.1832 11.2451 12.3241 11.368 12.4214 11.368C12.6162 11.368 12.7784 11.2451 13.1354 10.8587C13.9625 9.85801 14.6073 8.45253 14.8783 7.8116C14.9002 7.75977 14.9203 7.70639 14.9405 7.6529C15.0086 7.4719 15.0772 7.28965 15.2184 7.16188C15.3263 7.06428 15.4749 7 15.684 7H17.2156Z" fill="white"/>
</svg>
